<?xml version="1.0" encoding="UTF-8"?>
<svg xmlns="http://www.w3.org/2000/svg" xmlns:xlink="http://www.w3.org/1999/xlink" width="15px" height="15px" viewBox="0 0 15 15" version="1.1">
<g id="surface1">
<path style=" stroke:none;fill-rule:nonzero;fill:rgb(11.764706%,5.882353%,0%);fill-opacity:1;" d="M 0 14.375 L 15 14.375 L 15 15 L 0 15 Z M 0 14.375 "/>
<path style=" stroke:none;fill-rule:nonzero;fill:rgb(11.764706%,5.882353%,0%);fill-opacity:1;" d="M 7.1875 0 L 7.8125 0 L 7.8125 3.4375 L 7.1875 3.4375 Z M 7.1875 0 "/>
<path style=" stroke:none;fill-rule:nonzero;fill:rgb(11.764706%,5.882353%,0%);fill-opacity:1;" d="M 11.875 9.6875 L 12.5 9.6875 L 12.5 10.9375 L 11.875 10.9375 Z M 11.875 9.6875 "/>
<path style=" stroke:none;fill-rule:nonzero;fill:rgb(11.764706%,5.882353%,0%);fill-opacity:1;" d="M 11.875 11.875 L 12.5 11.875 L 12.5 13.125 L 11.875 13.125 Z M 11.875 11.875 "/>
<path style=" stroke:none;fill-rule:nonzero;fill:rgb(11.764706%,5.882353%,0%);fill-opacity:1;" d="M 2.5 9.6875 L 3.125 9.6875 L 3.125 10.9375 L 2.5 10.9375 Z M 2.5 9.6875 "/>
<path style=" stroke:none;fill-rule:nonzero;fill:rgb(11.764706%,5.882353%,0%);fill-opacity:1;" d="M 2.5 11.875 L 3.125 11.875 L 3.125 13.125 L 2.5 13.125 Z M 2.5 11.875 "/>
<path style=" stroke:none;fill-rule:nonzero;fill:rgb(11.764706%,5.882353%,0%);fill-opacity:1;" d="M 6.25 0.9375 L 8.75 0.9375 L 8.75 1.5625 L 6.25 1.5625 Z M 6.25 0.9375 "/>
<path style=" stroke:none;fill-rule:nonzero;fill:rgb(11.764706%,5.882353%,0%);fill-opacity:1;" d="M 10.625 15 L 4.375 15 C 4.203125 15 4.0625 14.859375 4.0625 14.6875 L 4.0625 5.3125 C 4.0625 5.203125 4.121094 5.101562 4.214844 5.042969 L 7.339844 3.167969 C 7.4375 3.113281 7.554688 3.113281 7.652344 3.167969 L 10.777344 5.042969 C 10.875 5.097656 10.9375 5.199219 10.9375 5.3125 L 10.9375 14.6875 C 10.9375 14.859375 10.796875 15 10.625 15 Z M 4.6875 14.375 L 10.3125 14.375 L 10.3125 5.492188 L 7.5 3.804688 L 4.6875 5.492188 Z M 4.6875 14.375 "/>
<path style=" stroke:none;fill-rule:nonzero;fill:rgb(11.764706%,5.882353%,0%);fill-opacity:1;" d="M 1.5625 14.6875 L 0.9375 14.6875 L 0.9375 9.0625 C 0.9375 8.953125 0.996094 8.851562 1.089844 8.792969 L 4.214844 6.917969 L 4.527344 7.457031 L 1.5625 9.242188 Z M 1.5625 14.6875 "/>
<path style=" stroke:none;fill-rule:nonzero;fill:rgb(11.764706%,5.882353%,0%);fill-opacity:1;" d="M 14.0625 14.6875 L 13.4375 14.6875 L 13.4375 9.242188 L 10.464844 7.457031 L 10.777344 6.917969 L 13.902344 8.792969 C 14 8.847656 14.0625 8.949219 14.0625 9.0625 Z M 14.0625 14.6875 "/>
<path style=" stroke:none;fill-rule:nonzero;fill:rgb(11.764706%,5.882353%,0%);fill-opacity:1;" d="M 9.0625 15 L 5.9375 15 C 5.765625 15 5.625 14.859375 5.625 14.6875 L 5.625 11.875 C 5.625 10.839844 6.464844 10 7.5 10 C 8.535156 10 9.375 10.839844 9.375 11.875 L 9.375 14.6875 C 9.375 14.859375 9.234375 15 9.0625 15 Z M 6.25 14.375 L 8.75 14.375 L 8.75 11.875 C 8.75 11.183594 8.191406 10.625 7.5 10.625 C 6.808594 10.625 6.25 11.183594 6.25 11.875 Z M 6.25 14.375 "/>
<path style=" stroke:none;fill-rule:nonzero;fill:rgb(11.764706%,5.882353%,0%);fill-opacity:1;" d="M 8.4375 9.0625 L 6.5625 9.0625 C 6.390625 9.0625 6.25 8.921875 6.25 8.75 L 6.25 6.5625 C 6.25 5.871094 6.808594 5.3125 7.5 5.3125 C 8.191406 5.3125 8.75 5.871094 8.75 6.5625 L 8.75 8.75 C 8.75 8.921875 8.609375 9.0625 8.4375 9.0625 Z M 6.875 8.4375 L 8.125 8.4375 L 8.125 6.5625 C 8.125 6.21875 7.84375 5.9375 7.5 5.9375 C 7.15625 5.9375 6.875 6.21875 6.875 6.5625 Z M 6.875 8.4375 "/>
<path style=" stroke:none;fill-rule:nonzero;fill:rgb(11.764706%,5.882353%,0%);fill-opacity:1;" d="M 7.1875 10.3125 L 7.8125 10.3125 L 7.8125 14.6875 L 7.1875 14.6875 Z M 7.1875 10.3125 "/>
</g>
</svg>
